<svg width="100" height="47" viewBox="0 0 245 47" fill="none" xmlns="http://www.w3.org/2000/svg">
<path d="M2.6875 0.1875C4.02083 0.229167 5.1875 0.25 6.1875 0.25C7.1875 0.208333 8 0.1875 8.625 0.1875H10.4375C10.8958 0.145833 11.4583 0.125 12.125 0.125C12.7083 0.125 13.4167 0.125 14.25 0.125C15.0833 0.125 16.0417 0.145833 17.125 0.1875C17.4583 1.35417 17.8333 2.5 18.25 3.625C18.7083 4.70833 19.1042 5.6875 19.4375 6.5625C19.8542 7.60417 20.2708 8.58333 20.6875 9.5C21.1042 10.4167 21.6042 11.5208 22.1875 12.8125C22.6875 13.8958 23.2917 15.2292 24 16.8125C24.7083 18.3542 25.5417 20.125 26.5 22.125C26.9583 20.8333 27.375 19.6458 27.75 18.5625C28.1667 17.4792 28.5208 16.5417 28.8125 15.75C29.1458 14.8333 29.4167 14 29.625 13.25C29.8333 12.5 30.0625 11.5833 30.3125 10.5C30.5208 9.58333 30.75 8.47917 31 7.1875C31.2917 5.89583 31.5833 4.39583 31.875 2.6875C33.0833 2.6875 34.1667 2.6875 35.125 2.6875C36.0833 2.6875 36.9167 2.66667 37.625 2.625C38.4167 2.625 39.125 2.60417 39.75 2.5625C40.4167 2.5625 41.3125 2.52083 42.4375 2.4375C43.3958 2.35417 44.6667 2.29167 46.25 2.25C47.875 2.16667 49.875 2.0625 52.25 1.9375C51.375 2.5625 50.6667 3.1875 50.125 3.8125C49.625 4.39583 49.2292 4.91667 48.9375 5.375C48.6042 5.91667 48.3958 6.4375 48.3125 6.9375C48.2292 7.35417 48.1458 8.3125 48.0625 9.8125C48.0208 11.3125 47.9583 13.1042 47.875 15.1875C47.8333 17.2292 47.7917 19.4167 47.75 21.75C47.75 24.0833 47.7708 26.2917 47.8125 28.375C47.8542 30.4583 47.9167 32.2708 48 33.8125C48.125 35.3125 48.2917 36.2708 48.5 36.6875C48.7917 37.1875 49.1875 37.7708 49.6875 38.4375C50.1458 39.0208 50.7292 39.6875 51.4375 40.4375C52.1875 41.1875 53.1667 42.0208 54.375 42.9375C52.4583 43.0208 50.8542 43.0833 49.5625 43.125C48.3125 43.1667 47.2708 43.2083 46.4375 43.25C45.4792 43.2917 44.7083 43.3125 44.125 43.3125C43.5 43.3125 42.6458 43.3333 41.5625 43.375C40.6042 43.4167 39.3333 43.4792 37.75 43.5625C36.1667 43.6042 34.125 43.6875 31.625 43.8125C32.2083 43.1458 32.75 42.4792 33.25 41.8125C33.75 41.1458 34.1667 40.5417 34.5 40C34.9167 39.375 35.2708 38.7708 35.5625 38.1875C35.8542 37.3958 36.0833 35.9583 36.25 33.875C36.4167 32.0833 36.5417 29.5208 36.625 26.1875C36.7083 22.8125 36.7083 18.2917 36.625 12.625C35.8333 13.9167 35.125 15.2083 34.5 16.5C33.9167 17.75 33.3958 18.8958 32.9375 19.9375C32.4375 21.1458 31.9792 22.3125 31.5625 23.4375C31.1458 24.6042 30.7083 25.8958 30.25 27.3125C29.8333 28.5208 29.3333 29.9583 28.75 31.625C28.2083 33.2917 27.5833 35.125 26.875 37.125L24.5 37.25C24.1667 35.5833 23.8333 34.0833 23.5 32.75C23.1667 31.375 22.8333 30.2083 22.5 29.25C22.125 28.125 21.75 27.125 21.375 26.25C20.9583 25.375 20.5 24.3958 20 23.3125C19.5417 22.3958 18.9792 21.3125 18.3125 20.0625C17.6875 18.8125 16.9583 17.4167 16.125 15.875C15.7083 20.125 15.4583 23.5833 15.375 26.25C15.2917 28.875 15.2917 30.9167 15.375 32.375C15.4583 34.125 15.5833 35.3958 15.75 36.1875C16 36.8958 16.3958 37.6875 16.9375 38.5625C17.3958 39.3125 18.0208 40.2083 18.8125 41.25C19.6458 42.25 20.7083 43.375 22 44.625C21.0833 44.625 20.125 44.625 19.125 44.625C18.125 44.625 17.2083 44.6458 16.375 44.6875C15.375 44.7292 14.3958 44.75 13.4375 44.75C12.4375 44.7917 11.2708 44.8542 9.9375 44.9375C8.77083 45.0208 7.375 45.1042 5.75 45.1875C4.125 45.2708 2.25 45.4167 0.125 45.625C1.04167 45.0417 1.79167 44.4792 2.375 43.9375C2.95833 43.3542 3.41667 42.8333 3.75 42.375C4.16667 41.8333 4.47917 41.2917 4.6875 40.75C4.8125 40.4167 4.91667 39.6875 5 38.5625C5.125 37.4375 5.22917 36.0625 5.3125 34.4375C5.4375 32.8125 5.52083 31 5.5625 29C5.64583 27 5.70833 24.9792 5.75 22.9375C5.83333 20.8542 5.89583 18.8333 5.9375 16.875C5.97917 14.875 6 13.0833 6 11.5C6.04167 9.875 6.0625 8.52083 6.0625 7.4375C6.0625 6.35417 6.0625 5.66667 6.0625 5.375C5.9375 4.75 5.75 4.125 5.5 3.5C5.29167 2.95833 4.95833 2.39583 4.5 1.8125C4.04167 1.22917 3.4375 0.6875 2.6875 0.1875ZM68.6875 34.9375C69.8542 34.9375 70.9375 34.8125 71.9375 34.5625C72.7708 34.3542 73.5625 34.0208 74.3125 33.5625C75.1042 33.0625 75.625 32.3333 75.875 31.375C76.7083 31.5417 77.4167 31.6875 78 31.8125C78.5833 31.8958 79.0833 31.9792 79.5 32.0625C79.9583 32.1875 80.3542 32.2708 80.6875 32.3125C81.0208 32.3958 81.4167 32.4792 81.875 32.5625C82.2917 32.6458 82.7917 32.75 83.375 32.875C84 32.9583 84.7292 33.0833 85.5625 33.25C84.9375 33.1667 84.2917 33.2292 83.625 33.4375C83 33.6458 82.3958 33.875 81.8125 34.125C81.1458 34.4167 80.5208 34.7708 79.9375 35.1875C79.5625 35.4375 79.125 35.8125 78.625 36.3125C78.1667 36.8125 77.5 37.2917 76.625 37.75C75.75 38.2083 74.5833 38.6042 73.125 38.9375C71.7083 39.2292 69.875 39.3333 67.625 39.25C64.9167 39.1667 62.6458 38.6875 60.8125 37.8125C58.9792 36.8958 57.5 35.7917 56.375 34.5C55.25 33.1667 54.4375 31.7292 53.9375 30.1875C53.4375 28.6458 53.1667 27.2083 53.125 25.875C53.0833 24.5417 53.4792 23.1458 54.3125 21.6875C55.1458 20.2292 56.3125 18.8958 57.8125 17.6875C59.3542 16.4792 61.2083 15.5 63.375 14.75C65.5417 13.9583 67.9167 13.5625 70.5 13.5625C72 13.5625 73.375 13.75 74.625 14.125C75.9167 14.4583 77.0833 14.9167 78.125 15.5C79.2083 16.0833 80.1458 16.75 80.9375 17.5C81.7292 18.2083 82.3958 18.9375 82.9375 19.6875C83.4792 20.4792 83.9375 21.3125 84.3125 22.1875C84.6458 22.9375 84.9167 23.7917 85.125 24.75C85.3333 25.7083 85.3958 26.6875 85.3125 27.6875C82.1458 27.7708 79.5833 27.8333 77.625 27.875C75.7083 27.9167 74.2083 27.9375 73.125 27.9375H70.3125H68.1875C67.4375 27.9375 66.4583 27.9583 65.25 28C64.0417 28.0417 62.5625 28.1042 60.8125 28.1875C61.0208 29.8542 61.5417 31.1458 62.375 32.0625C63.25 32.9375 64.1667 33.6042 65.125 34.0625C66.2083 34.5625 67.3958 34.8542 68.6875 34.9375ZM63.0625 23.6875C64.3958 23.7708 65.5 23.8333 66.375 23.875C67.2917 23.9167 68.0417 23.9583 68.625 24C69.25 24.0417 69.75 24.0625 70.125 24.0625H71.6875C72.7292 24.0625 74.6667 24 77.5 23.875C77.375 22.0417 76.9792 20.6458 76.3125 19.6875C75.6875 18.7292 75.0208 18.0208 74.3125 17.5625C73.4792 17.0625 72.5625 16.7708 71.5625 16.6875C68.8542 16.7292 66.8333 17.2917 65.5 18.375C64.2083 19.4583 63.3958 21.2292 63.0625 23.6875ZM87.0625 5.625C88.3125 5.75 89.3542 5.85417 90.1875 5.9375C91.0625 6.02083 91.7708 6.08333 92.3125 6.125C92.9375 6.16667 93.4375 6.1875 93.8125 6.1875C94.1875 6.22917 94.6875 6.22917 95.3125 6.1875C95.8542 6.14583 96.5625 6.10417 97.4375 6.0625C98.3125 5.97917 99.4167 5.85417 100.75 5.6875C100.458 6.10417 100.229 6.47917 100.062 6.8125C99.8958 7.10417 99.75 7.375 99.625 7.625L99.25 8.375C99.1667 8.625 99.0833 8.875 99 9.125C98.9167 9.33333 98.8333 9.58333 98.75 9.875C98.7083 10.1667 98.6667 10.4792 98.625 10.8125H108.25L107.375 15.875L98.5625 15.375C98.3542 17.5 98.2083 19.1458 98.125 20.3125C98.0417 21.4792 97.9583 22.3333 97.875 22.875L97.75 24C97.625 25.5833 97.5 27.3125 97.375 29.1875C97.25 31.0208 97.2083 32.7292 97.25 34.3125C97.2917 35.8958 97.4375 37.2292 97.6875 38.3125C97.9375 39.3542 98.375 39.875 99 39.875C99.625 39.875 100.208 39.7083 100.75 39.375C101.292 39.0417 101.75 38.6458 102.125 38.1875C102.542 37.7292 102.854 37.2708 103.062 36.8125C103.271 36.3125 103.375 35.9375 103.375 35.6875C103.375 35.4375 103.312 35.1458 103.188 34.8125C102.979 34.1875 102.604 33.3958 102.062 32.4375C103.271 32.7292 104.333 33.0208 105.25 33.3125C105.708 33.4792 106.125 33.6458 106.5 33.8125C106.917 33.9792 107.396 34.1667 107.938 34.375C108.396 34.5833 108.979 34.8333 109.688 35.125C110.396 35.4167 111.229 35.7708 112.188 36.1875C111.271 36.3542 110.604 36.625 110.188 37C109.938 37.1667 109.75 37.3542 109.625 37.5625C109.333 38.0208 109 38.6458 108.625 39.4375C108.25 40.1875 107.688 40.9375 106.938 41.6875C106.188 42.4375 105.167 43.1042 103.875 43.6875C102.625 44.2708 100.938 44.6042 98.8125 44.6875C96.6042 44.7708 94.9167 44.3958 93.75 43.5625C92.625 42.7292 91.7917 41.7708 91.25 40.6875C90.75 39.5625 90.4583 38.4583 90.375 37.375C90.2917 36.2917 90.2292 35.5625 90.1875 35.1875C90.1458 34.8125 90.1458 33.875 90.1875 32.375C90.2292 30.875 90.2917 29.2292 90.375 27.4375C90.4583 25.6042 90.5417 23.8542 90.625 22.1875C90.7083 20.4792 90.75 19.2292 90.75 18.4375C90.75 18.0208 90.7708 17.5833 90.8125 17.125C90.8125 16.75 90.8125 16.3542 90.8125 15.9375C90.8542 15.4792 90.875 15.0417 90.875 14.625L81.8125 14.5625L81.4375 11L90.5625 11.25C90.4792 10.7917 90.375 10.375 90.25 10C90.1667 9.58333 90.0833 9.25 90 9C89.875 8.70833 89.75 8.45833 89.625 8.25C89.4583 8.04167 89.2708 7.8125 89.0625 7.5625C88.8542 7.35417 88.5833 7.08333 88.25 6.75C87.9167 6.41667 87.5208 6.04167 87.0625 5.625ZM125.875 34.9375C127.042 34.9375 128.125 34.8125 129.125 34.5625C129.958 34.3542 130.75 34.0208 131.5 33.5625C132.292 33.0625 132.812 32.3333 133.062 31.375C133.896 31.5417 134.604 31.6875 135.188 31.8125C135.771 31.8958 136.271 31.9792 136.688 32.0625C137.146 32.1875 137.542 32.2708 137.875 32.3125C138.208 32.3958 138.604 32.4792 139.062 32.5625C139.479 32.6458 139.979 32.75 140.562 32.875C141.188 32.9583 141.917 33.0833 142.75 33.25C142.125 33.1667 141.479 33.2292 140.812 33.4375C140.188 33.6458 139.583 33.875 139 34.125C138.333 34.4167 137.708 34.7708 137.125 35.1875C136.75 35.4375 136.312 35.8125 135.812 36.3125C135.354 36.8125 134.688 37.2917 133.812 37.75C132.938 38.2083 131.771 38.6042 130.312 38.9375C128.896 39.2292 127.062 39.3333 124.812 39.25C122.104 39.1667 119.833 38.6875 118 37.8125C116.167 36.8958 114.688 35.7917 113.562 34.5C112.438 33.1667 111.625 31.7292 111.125 30.1875C110.625 28.6458 110.354 27.2083 110.312 25.875C110.271 24.5417 110.667 23.1458 111.5 21.6875C112.333 20.2292 113.5 18.8958 115 17.6875C116.542 16.4792 118.396 15.5 120.562 14.75C122.729 13.9583 125.104 13.5625 127.688 13.5625C129.188 13.5625 130.562 13.75 131.812 14.125C133.104 14.4583 134.271 14.9167 135.312 15.5C136.396 16.0833 137.333 16.75 138.125 17.5C138.917 18.2083 139.583 18.9375 140.125 19.6875C140.667 20.4792 141.125 21.3125 141.5 22.1875C141.833 22.9375 142.104 23.7917 142.312 24.75C142.521 25.7083 142.583 26.6875 142.5 27.6875C139.333 27.7708 136.771 27.8333 134.812 27.875C132.896 27.9167 131.396 27.9375 130.312 27.9375H127.5H125.375C124.625 27.9375 123.646 27.9583 122.438 28C121.229 28.0417 119.75 28.1042 118 28.1875C118.208 29.8542 118.729 31.1458 119.562 32.0625C120.438 32.9375 121.354 33.6042 122.312 34.0625C123.396 34.5625 124.583 34.8542 125.875 34.9375ZM120.25 23.6875C121.583 23.7708 122.688 23.8333 123.562 23.875C124.479 23.9167 125.229 23.9583 125.812 24C126.438 24.0417 126.938 24.0625 127.312 24.0625H128.875C129.917 24.0625 131.854 24 134.688 23.875C134.562 22.0417 134.167 20.6458 133.5 19.6875C132.875 18.7292 132.208 18.0208 131.5 17.5625C130.667 17.0625 129.75 16.7708 128.75 16.6875C126.042 16.7292 124.021 17.2917 122.688 18.375C121.396 19.4583 120.583 21.2292 120.25 23.6875ZM161.75 17C162.833 17 163.958 17.2083 165.125 17.625C166.292 18 167.417 18.5 168.5 19.125C169.583 19.7083 170.562 20.3542 171.438 21.0625C172.354 21.7292 173.104 22.375 173.688 23C174.729 24.125 175.438 25.6458 175.812 27.5625C176.229 29.4375 176.312 31.375 176.062 33.375C175.812 35.3333 175.229 37.1875 174.312 38.9375C173.396 40.6875 172.125 41.9792 170.5 42.8125C169.333 43.3958 168.188 43.8542 167.062 44.1875C165.938 44.5208 164.854 44.7708 163.812 44.9375C162.771 45.1042 161.792 45.1875 160.875 45.1875C159.958 45.1875 159.167 45.1667 158.5 45.125C157.25 45.0417 155.938 44.6042 154.562 43.8125C153.229 43.0208 151.958 42.0417 150.75 40.875C149.583 39.7083 148.583 38.4375 147.75 37.0625C146.917 35.6458 146.417 34.3125 146.25 33.0625C146 31.3542 145.958 29.5625 146.125 27.6875C146.292 25.8125 146.896 24.0833 147.938 22.5C149.021 20.9167 150.646 19.6042 152.812 18.5625C155.021 17.5208 158 17 161.75 17ZM159.688 41.25C160.146 41.3333 160.771 41.2292 161.562 40.9375C162.354 40.6042 163.125 40.0833 163.875 39.375C164.667 38.6667 165.354 37.7708 165.938 36.6875C166.562 35.5625 166.938 34.2083 167.062 32.625C167.188 31.0833 167.188 29.6667 167.062 28.375C166.979 27.0833 166.792 25.9583 166.5 25C166.208 24 165.875 23.1875 165.5 22.5625C165.125 21.9375 164.729 21.5 164.312 21.25C163.604 20.875 162.75 20.5833 161.75 20.375C160.75 20.125 159.896 20.1667 159.188 20.5C158.854 20.6667 158.438 21.0208 157.938 21.5625C157.438 22.1042 156.938 22.7917 156.438 23.625C155.938 24.4167 155.479 25.3333 155.062 26.375C154.688 27.4167 154.417 28.5 154.25 29.625C154.083 30.75 154.042 31.9583 154.125 33.25C154.25 34.5417 154.521 35.7708 154.938 36.9375C155.354 38.0625 155.938 39.0417 156.688 39.875C157.479 40.6667 158.479 41.125 159.688 41.25ZM178.438 15.0625C179.229 15.1042 179.938 15.125 180.562 15.125C181.229 15.0833 181.792 15.0417 182.25 15C182.792 14.9583 183.271 14.9167 183.688 14.875C184.312 14.7917 184.958 14.6875 185.625 14.5625C186.208 14.4792 186.812 14.375 187.438 14.25C188.104 14.0833 188.75 13.8958 189.375 13.6875C189.125 14.3125 188.917 14.8542 188.75 15.3125C188.583 15.7708 188.458 16.1667 188.375 16.5C188.25 16.875 188.188 17.1875 188.188 17.4375C188.146 17.7292 188.125 18.0833 188.125 18.5C188.083 19.2083 188.083 20.3542 188.125 21.9375C190.292 20.0625 192.104 18.6042 193.562 17.5625C195.062 16.5208 196.25 15.7083 197.125 15.125C198.167 14.4583 198.979 14.0208 199.562 13.8125C201.104 13.5625 202.458 13.9167 203.625 14.875C204.125 15.2917 204.604 15.8542 205.062 16.5625C205.521 17.2292 205.917 18.125 206.25 19.25C206.583 20.375 206.833 21.7292 207 23.3125C207.167 24.8542 207.188 26.7083 207.062 28.875C206.188 28.9583 205.396 29.0417 204.688 29.125C204.021 29.2083 203.458 29.2708 203 29.3125C202.458 29.3958 201.958 29.4375 201.5 29.4375L199.812 29.625C199.229 29.7083 198.5 29.7917 197.625 29.875C196.792 29.9167 195.771 30 194.562 30.125C196.312 28.7083 197.438 27.4792 197.938 26.4375C198.479 25.3542 198.708 24.4583 198.625 23.75C198.542 22.9583 198.167 22.2708 197.5 21.6875C196.708 21.2292 195.854 21.0625 194.938 21.1875C194.146 21.2708 193.229 21.625 192.188 22.25C191.146 22.875 190.042 24.0417 188.875 25.75C188.958 28.4167 189.042 30.625 189.125 32.375C189.25 34.125 189.354 35.5417 189.438 36.625C189.562 37.875 189.667 38.8542 189.75 39.5625C189.875 40.1875 190.125 40.8542 190.5 41.5625C190.792 42.1458 191.208 42.7917 191.75 43.5C192.292 44.2083 193 44.9167 193.875 45.625C192.042 45.5417 190.542 45.5417 189.375 45.625C188.667 45.6667 188.042 45.7083 187.5 45.75C186.917 45.8333 186.292 45.9167 185.625 46C185.042 46.0833 184.354 46.1667 183.562 46.25C182.812 46.375 181.979 46.5 181.062 46.625C181.396 46.1667 181.667 45.625 181.875 45C182.083 44.4167 182.25 43.8542 182.375 43.3125C182.542 42.6875 182.667 42.0417 182.75 41.375C182.792 40.7917 182.812 39.9167 182.812 38.75C182.854 37.5833 182.833 36.2708 182.75 34.8125C182.708 33.3125 182.646 31.7708 182.562 30.1875C182.479 28.5625 182.375 27.0417 182.25 25.625C182.125 24.2083 181.979 22.9792 181.812 21.9375C181.688 20.8542 181.542 20.1042 181.375 19.6875C181.167 19.1875 180.917 18.6875 180.625 18.1875C180.375 17.7292 180.062 17.25 179.688 16.75C179.312 16.2083 178.896 15.6458 178.438 15.0625ZM214.375 19.6875C214.583 19.4375 214.708 18.9792 214.75 18.3125C214.833 17.6042 215 16.8125 215.25 15.9375C215.542 15.0625 216.021 14.1458 216.688 13.1875C217.354 12.2292 218.438 11.3333 219.938 10.5C221.396 9.66667 222.812 9.16667 224.188 9C225.562 8.83333 226.875 8.89583 228.125 9.1875C229.375 9.47917 230.542 9.9375 231.625 10.5625C232.75 11.1875 233.771 11.875 234.688 12.625C235.312 13.125 235.812 13.8542 236.188 14.8125C236.562 15.7292 236.854 16.7708 237.062 17.9375C237.271 19.1042 237.417 20.3333 237.5 21.625C237.625 22.875 237.708 24.1042 237.75 25.3125C237.792 26.4792 237.812 27.5625 237.812 28.5625C237.854 29.5208 237.938 30.3125 238.062 30.9375C238.229 31.8542 238.521 32.6458 238.938 33.3125C239.354 33.9375 239.812 34.4792 240.312 34.9375C240.812 35.3542 241.312 35.6875 241.812 35.9375C242.312 36.1875 242.75 36.375 243.125 36.5C243.375 36.625 243.604 36.7083 243.812 36.75C244.229 36.9167 244.521 36.9167 244.688 36.75C244.438 37.3333 244.208 37.8333 244 38.25C243.792 38.6667 243.625 39.0208 243.5 39.3125C243.333 39.6458 243.188 39.9167 243.062 40.125C242.938 40.375 242.792 40.6042 242.625 40.8125C242.5 41.0208 242.333 41.25 242.125 41.5C241.917 41.75 241.708 42.0208 241.5 42.3125C240.958 42.1042 240.438 41.8542 239.938 41.5625C239.479 41.2708 239.062 41 238.688 40.75C238.229 40.4583 237.812 40.1667 237.438 39.875C237.062 39.5833 236.708 39.25 236.375 38.875C236.083 38.5417 235.771 38.1875 235.438 37.8125C235.146 37.4375 234.896 37.0208 234.688 36.5625C234.438 37.1042 233.833 37.875 232.875 38.875C231.958 39.875 230.75 40.7917 229.25 41.625C227.75 42.4167 226 42.9792 224 43.3125C222.042 43.6458 219.875 43.4167 217.5 42.625C216.458 42.2917 215.479 41.8125 214.562 41.1875C213.646 40.5208 212.854 39.7292 212.188 38.8125C211.562 37.8958 211.104 36.8542 210.812 35.6875C210.562 34.4792 210.583 33.1458 210.875 31.6875C211.167 30.2292 211.688 29 212.438 28C213.188 27 214.083 26.1875 215.125 25.5625C216.167 24.9375 217.333 24.4583 218.625 24.125C219.917 23.7917 221.25 23.5625 222.625 23.4375C223.708 23.3958 224.792 23.4583 225.875 23.625C226.792 23.7917 227.75 24.1042 228.75 24.5625C229.75 24.9792 230.604 25.625 231.312 26.5C231.271 24.2917 231.188 22.5417 231.062 21.25C230.979 19.9167 230.896 18.8958 230.812 18.1875C230.646 17.3542 230.5 16.7708 230.375 16.4375C230.167 16.1458 229.938 15.8125 229.688 15.4375C229.479 15.0625 229.208 14.7292 228.875 14.4375C228.542 14.1042 228.125 13.8333 227.625 13.625C227.125 13.4167 226.542 13.3333 225.875 13.375C225.167 13.4167 224.604 13.6042 224.188 13.9375C223.771 14.2708 223.438 14.6667 223.188 15.125C222.979 15.5417 222.854 16 222.812 16.5C222.771 17 222.792 17.4375 222.875 17.8125C222.958 18.0625 223.083 18.3333 223.25 18.625C223.417 18.875 223.646 19.1458 223.938 19.4375C224.229 19.7292 224.625 19.9792 225.125 20.1875C224.167 20.3125 223.312 20.4167 222.562 20.5C221.812 20.5417 221.167 20.6042 220.625 20.6875C220 20.7708 219.458 20.8333 219 20.875C218.542 20.9167 218 21 217.375 21.125C216.833 21.2083 216.167 21.3125 215.375 21.4375C214.583 21.5625 213.667 21.7292 212.625 21.9375C212.875 21.6458 213.104 21.375 213.312 21.125C213.521 20.8333 213.708 20.5833 213.875 20.375C214.042 20.125 214.208 19.8958 214.375 19.6875ZM223.75 27.125C223 27.1667 222.25 27.3542 221.5 27.6875C220.75 27.9792 220.083 28.4167 219.5 29C218.917 29.5417 218.417 30.1875 218 30.9375C217.625 31.6458 217.438 32.4375 217.438 33.3125C217.438 34.1875 217.646 34.9583 218.062 35.625C218.521 36.25 219.104 36.7708 219.812 37.1875C220.562 37.6042 221.354 37.8542 222.188 37.9375C223.062 38.0208 223.917 37.9375 224.75 37.6875C225.542 37.3958 226.292 36.9375 227 36.3125C227.708 35.6458 228.312 34.9375 228.812 34.1875C229.312 33.3958 229.667 32.625 229.875 31.875C230.083 31.0833 230.104 30.4375 229.938 29.9375C229.604 28.8542 228.854 28.1042 227.688 27.6875C226.521 27.2292 225.208 27.0417 223.75 27.125Z" fill="url(#paint0_linear_5_3)"/>
<defs>
<linearGradient id="paint0_linear_5_3" x1="3" y1="22.5" x2="244" y2="22.5" gradientUnits="userSpaceOnUse">
<stop stop-color="#CC430C"/>
<stop offset="1" stop-color="#E69E02"/>
</linearGradient>
</defs>
</svg>
